<svg xmlns="http://www.w3.org/2000/svg" style="display:none" aria-hidden="true">
  <symbol id="i-gh" viewBox="0 0 24 24">
    <path fill="currentColor" d="M12 .5C5.65.5.5 5.65.5 12a11.5 11.5 0 0 0 7.86 10.92c.58.1.79-.25.79-.56 0-.28-.01-1.01-.02-1.98-3.2.69-3.88-1.54-3.88-1.54-.52-1.33-1.28-1.68-1.28-1.68-1.04-.71.08-.7.08-.7 1.16.08 1.77 1.19 1.77 1.19 1.03 1.76 2.7 1.25 3.36.96.1-.74.4-1.25.73-1.54-2.55-.29-5.24-1.28-5.24-5.69 0-1.26.45-2.28 1.18-3.08-.12-.29-.51-1.46.11-3.04 0 0 .97-.31 3.17 1.18a11 11 0 0 1 5.78 0c2.19-1.49 3.16-1.18 3.16-1.18.63 1.58.24 2.75.12 3.04.74.8 1.18 1.82 1.18 3.08 0 4.42-2.69 5.4-5.25 5.68.41.35.77 1.04.77 2.11 0 1.52-.01 2.75-.01 3.12 0 .31.21.67.8.56A11.5 11.5 0 0 0 23.5 12C23.5 5.65 18.35.5 12 .5Z"/>
  </symbol>
  <symbol id="i-hunt" viewBox="0 0 24 24" fill="none" stroke="currentColor" stroke-width="1.6" stroke-linecap="round" stroke-linejoin="round">
    <rect x="2.5" y="7.5" width="19" height="11" rx="4.5"/>
    <line x1="6.5" y1="13" x2="9.5" y2="13"/>
    <line x1="8" y1="11.5" x2="8" y2="14.5"/>
    <circle cx="15.5" cy="11.5" r="1" fill="currentColor" stroke="none"/>
    <circle cx="18" cy="14" r="1" fill="currentColor" stroke="none"/>
  </symbol>
  <symbol id="i-search" viewBox="0 0 16 16" fill="none" stroke="currentColor" stroke-width="1.6" stroke-linecap="round">
    <circle cx="7" cy="7" r="4.5"/>
    <path d="M10.5 10.5 14 14"/>
  </symbol>
</svg>
